<svg width="24" height="24" viewBox="0 0 24 24" fill="none" xmlns="http://www.w3.org/2000/svg">
<g clip-path="url(#clip0_16_96)">
<path d="M9.24992 21.1667C9.75618 21.1667 10.1666 20.7563 10.1666 20.25C10.1666 19.7437 9.75618 19.3333 9.24992 19.3333C8.74366 19.3333 8.33325 19.7437 8.33325 20.25C8.33325 20.7563 8.74366 21.1667 9.24992 21.1667Z" stroke="#2C2D35" stroke-width="2" stroke-linecap="round" stroke-linejoin="round"/>
<path d="M19.3334 21.1667C19.8397 21.1667 20.2501 20.7563 20.2501 20.25C20.2501 19.7437 19.8397 19.3333 19.3334 19.3333C18.8272 19.3333 18.4167 19.7437 18.4167 20.25C18.4167 20.7563 18.8272 21.1667 19.3334 21.1667Z" stroke="#2C2D35" stroke-width="2" stroke-linecap="round" stroke-linejoin="round"/>
<path d="M1.91675 1.91667H5.58341L8.04008 14.1908C8.12391 14.6129 8.3535 14.992 8.68866 15.2618C9.02383 15.5316 9.44322 15.6749 9.87341 15.6667H18.7834C19.2136 15.6749 19.633 15.5316 19.9682 15.2618C20.3033 14.992 20.5329 14.6129 20.6167 14.1908L22.0834 6.5H6.50008" stroke="#2C2D35" stroke-width="2" stroke-linecap="round" stroke-linejoin="round"/>
</g>
<defs>
<clipPath id="clip0_16_96">
<rect width="22" height="22" fill="white" transform="translate(1 1)"/>
</clipPath>
</defs>
</svg>
